<svg width="20" height="20" viewBox="0 0 20 20" fill="none" xmlns="http://www.w3.org/2000/svg">
<path d="M9.99994 19.5C15.2471 19.5 19.4999 15.2472 19.4999 10C19.4999 4.75271 15.2471 0.5 9.99994 0.5C4.75268 0.5 0.5 4.75271 0.5 10C0.5 15.2472 4.75268 19.5 9.99994 19.5Z" fill="url(#paint0_linear_3_65)" stroke="white"/>
<path fill-rule="evenodd" clip-rule="evenodd" d="M11.9012 7.62344C11.7872 7.31823 8.21402 7.31823 8.10017 7.62344C7.96787 7.97928 8.78079 8.46292 10.0014 8.44885C11.2206 8.46303 12.032 7.97782 11.9012 7.62344Z" fill="url(#paint1_linear_3_65)"/>
<path fill-rule="evenodd" clip-rule="evenodd" d="M7.80058 5.61257C7.80193 6.36913 7.3183 6.59132 6.601 6.68267C5.89091 6.78954 5.41279 6.47601 5.40154 5.61257C5.39164 4.88694 5.78257 4.00101 6.601 3.98413C7.41809 4.00101 7.79912 4.88694 7.80058 5.61257Z" fill="url(#paint2_radial_3_65)"/>
<path fill-rule="evenodd" clip-rule="evenodd" d="M6.48018 4.50583C6.5983 4.64353 6.57715 4.88271 6.43237 5.04156C6.28747 5.19906 6.07518 5.21593 5.95706 5.07812C5.83893 4.94031 5.85997 4.70125 6.00487 4.54375C6.14966 4.38478 6.36206 4.36937 6.48018 4.50572V4.50583Z" fill="#4E506A"/>
<path fill-rule="evenodd" clip-rule="evenodd" d="M12.2021 5.61257C12.2008 6.36913 12.6845 6.59132 13.4017 6.68267C14.1118 6.78954 14.5899 6.47601 14.6012 5.61257C14.6111 4.88694 14.2201 4.00101 13.4016 3.98413C12.5833 4.00101 12.2021 4.88694 12.2021 5.61257Z" fill="url(#paint3_radial_3_65)"/>
<path fill-rule="evenodd" clip-rule="evenodd" d="M13.4073 4.45219C13.503 4.60688 13.4452 4.84032 13.278 4.97397C13.1106 5.10751 12.8983 5.09209 12.8026 4.93741C12.707 4.78272 12.7646 4.54928 12.932 4.41563C13.098 4.28209 13.3117 4.29751 13.4073 4.45219Z" fill="#4E506A"/>
<path fill-rule="evenodd" clip-rule="evenodd" d="M4.79685 3.33437C4.56195 3.53271 4.75185 3.93906 5.14841 3.75344C5.78122 3.45677 7.13818 3.09115 8.33079 3.22469C8.64714 3.2599 8.74974 3.21344 8.67954 2.8225C8.61057 2.43719 8.24641 2.18541 7.34079 2.29656C5.93725 2.46812 5.03163 3.13604 4.79685 3.33437Z" fill="url(#paint4_radial_3_65)"/>
<path fill-rule="evenodd" clip-rule="evenodd" d="M12.6591 2.29513C11.7535 2.18398 11.3893 2.43711 11.3203 2.82096C11.25 3.21201 11.3527 3.25836 11.6691 3.22326C12.8616 3.08961 14.2172 3.45523 14.8515 3.75201C15.248 3.93763 15.4379 3.53117 15.203 3.33294C14.9681 3.13607 14.0626 2.46804 12.6591 2.29513Z" fill="url(#paint5_radial_3_65)"/>
<path d="M11.8942 10.5681C9.54713 9.83822 8.72307 11.4541 8.72307 11.4541C8.72307 11.4541 8.96078 9.65541 6.61371 8.92562C4.35674 8.22385 2.98842 10.3037 2.883 11.6116C2.65654 14.4269 5.09643 17.6219 6.00902 18.7103C6.21298 18.9535 6.53777 19.0534 6.84298 18.9691C8.21266 18.5907 12.0334 17.342 13.4439 14.8951C14.0977 13.7603 14.1498 11.2698 11.8942 10.5681Z" fill="url(#paint6_linear_3_65)"/>
<path d="M11.8942 10.5681C9.54713 9.83822 8.72307 11.4541 8.72307 11.4541C8.72307 11.4541 8.96078 9.65541 6.61371 8.92562C4.35674 8.22385 2.98842 10.3037 2.883 11.6116C2.65654 14.4269 5.09643 17.6219 6.00902 18.7103C6.21298 18.9535 6.53777 19.0534 6.84298 18.9691C8.21266 18.5907 12.0334 17.342 13.4439 14.8951C14.0977 13.7603 14.1498 11.2698 11.8942 10.5681Z" fill="url(#paint7_radial_3_65)"/>
<path d="M11.8942 10.5681C9.54713 9.83822 8.72307 11.4541 8.72307 11.4541C8.72307 11.4541 8.96078 9.65541 6.61371 8.92562C4.35674 8.22385 2.98842 10.3037 2.883 11.6116C2.65654 14.4269 5.09643 17.6219 6.00902 18.7103C6.21298 18.9535 6.53777 19.0534 6.84298 18.9691C8.21266 18.5907 12.0334 17.342 13.4439 14.8951C14.0977 13.7603 14.1498 11.2698 11.8942 10.5681Z" fill="url(#paint8_radial_3_65)"/>
<path style="mix-blend-mode:multiply" d="M11.8942 10.5681C9.54713 9.83822 8.72307 11.4541 8.72307 11.4541C8.72307 11.4541 8.96078 9.65541 6.61371 8.92562C4.35674 8.22385 2.98842 10.3037 2.883 11.6116C2.65654 14.4269 5.09643 17.6219 6.00902 18.7103C6.21298 18.9535 6.53777 19.0534 6.84298 18.9691C8.21266 18.5907 12.0334 17.342 13.4439 14.8951C14.0977 13.7603 14.1498 11.2698 11.8942 10.5681Z" fill="url(#paint9_radial_3_65)"/>
<path style="mix-blend-mode:multiply" d="M11.8942 10.5681C9.54713 9.83822 8.72307 11.4541 8.72307 11.4541C8.72307 11.4541 8.96078 9.65541 6.61371 8.92562C4.35674 8.22385 2.98842 10.3037 2.883 11.6116C2.65654 14.4269 5.09643 17.6219 6.00902 18.7103C6.21298 18.9535 6.53777 19.0534 6.84298 18.9691C8.21266 18.5907 12.0334 17.342 13.4439 14.8951C14.0977 13.7603 14.1498 11.2698 11.8942 10.5681Z" fill="url(#paint10_radial_3_65)"/>
<path style="mix-blend-mode:multiply" d="M11.8942 10.5681C9.54713 9.83822 8.72307 11.4541 8.72307 11.4541C8.72307 11.4541 8.96078 9.65541 6.61371 8.92562C4.35674 8.22385 2.98842 10.3037 2.883 11.6116C2.65654 14.4269 5.09643 17.6219 6.00902 18.7103C6.21298 18.9535 6.53777 19.0534 6.84298 18.9691C8.21266 18.5907 12.0334 17.342 13.4439 14.8951C14.0977 13.7603 14.1498 11.2698 11.8942 10.5681Z" fill="url(#paint11_radial_3_65)"/>
<path style="mix-blend-mode:multiply" d="M11.8942 10.5681C9.54713 9.83822 8.72307 11.4541 8.72307 11.4541C8.72307 11.4541 8.96078 9.65541 6.61371 8.92562C4.35674 8.22385 2.98842 10.3037 2.883 11.6116C2.65654 14.4269 5.09643 17.6219 6.00902 18.7103C6.21298 18.9535 6.53777 19.0534 6.84298 18.9691C8.21266 18.5907 12.0334 17.342 13.4439 14.8951C14.0977 13.7603 14.1498 11.2698 11.8942 10.5681Z" fill="url(#paint12_radial_3_65)"/>
<path style="mix-blend-mode:multiply" d="M11.8942 10.5681C9.54713 9.83822 8.72307 11.4541 8.72307 11.4541C8.72307 11.4541 8.96078 9.65541 6.61371 8.92562C4.35674 8.22385 2.98842 10.3037 2.883 11.6116C2.65654 14.4269 5.09643 17.6219 6.00902 18.7103C6.21298 18.9535 6.53777 19.0534 6.84298 18.9691C8.21266 18.5907 12.0334 17.342 13.4439 14.8951C14.0977 13.7603 14.1498 11.2698 11.8942 10.5681Z" fill="url(#paint13_radial_3_65)"/>
<mask id="mask0_3_65" style="mask-type:alpha" maskUnits="userSpaceOnUse" x="1" y="1" width="18" height="18">
<path d="M19 10C19 14.971 14.9711 19 10.0001 19C5.02893 19 1.00011 14.971 1.00011 10C1.00011 5.02885 5.02893 1 10.0001 1C14.9711 1 19 5.02885 19 10Z" fill="white"/>
</mask>
<g mask="url(#mask0_3_65)">
<path fill-rule="evenodd" clip-rule="evenodd" d="M2.48793 9.62315C1.90012 9.05075 0.865124 8.7893 0.747 10.1153C0.654188 11.1518 1.13985 12.8847 2.37036 13.8916C5.4641 16.4229 8.38289 14.9772 8.47143 13.2105C8.54129 11.8172 6.94852 11.9674 6.43384 11.9955C6.39863 11.9969 6.38321 11.9505 6.41415 11.9309C6.52238 11.8605 6.69956 11.7396 6.88665 11.5821C7.29018 11.2417 7.08352 10.6511 6.51956 10.8213C6.43384 10.8466 5.06135 11.2572 4.19083 10.9281C3.20365 10.5555 3.08552 10.2068 2.48793 9.62315V9.62315Z" fill="url(#paint14_radial_3_65)"/>
<path fill-rule="evenodd" clip-rule="evenodd" d="M17.0439 9.82005C17.3941 9.14224 17.9504 9.37995 18.2633 9.48424C18.7243 9.63791 18.9985 9.92411 18.9985 10.6413C18.9985 12.3415 18.7173 13.9179 17.2985 15.5013C14.6997 18.3995 10.2813 18.0157 9.90725 16.1875C9.59788 14.6716 11.2376 14.5197 11.7648 14.4494C11.8014 14.4451 11.807 14.3889 11.7747 14.3748C11.5885 14.2904 11.4081 14.1936 11.2347 14.0851C10.7664 13.7926 10.8733 13.1036 11.4752 13.1782C12.1558 13.2794 12.9982 13.4707 13.7238 13.399C15.8247 13.1881 16.2213 11.4119 17.0439 9.82005V9.82005Z" fill="url(#paint15_radial_3_65)"/>
</g>
<defs>
<linearGradient id="paint0_linear_3_65" x1="9.99995" y1="18.1063" x2="9.99995" y2="2.33497" gradientUnits="userSpaceOnUse">
<stop stop-color="#F28A2D"/>
<stop offset="1" stop-color="#FDE86F"/>
</linearGradient>
<linearGradient id="paint1_linear_3_65" x1="9.99997" y1="6.97204" x2="9.99997" y2="8.57475" gradientUnits="userSpaceOnUse">
<stop stop-color="#482314"/>
<stop offset="1" stop-color="#9A4111"/>
</linearGradient>
<radialGradient id="paint2_radial_3_65" cx="0" cy="0" r="1" gradientUnits="userSpaceOnUse" gradientTransform="translate(5.62173 -2.70109) rotate(-90) scale(1.84674 2.3712)">
<stop stop-color="#3B446B"/>
<stop offset="0.6884" stop-color="#202340"/>
</radialGradient>
<radialGradient id="paint3_radial_3_65" cx="0" cy="0" r="1" gradientUnits="userSpaceOnUse" gradientTransform="translate(5.60508 -8.68618) rotate(-90) scale(1.84674 2.3712)">
<stop stop-color="#3B446B"/>
<stop offset="0.6884" stop-color="#202340"/>
</radialGradient>
<radialGradient id="paint4_radial_3_65" cx="0" cy="0" r="1" gradientUnits="userSpaceOnUse" gradientTransform="translate(3.53519 -5.11248) rotate(-95.6135) scale(1.16051 0.829179)">
<stop stop-color="#E38200"/>
<stop offset="1" stop-color="#CD6700"/>
</radialGradient>
<radialGradient id="paint5_radial_3_65" cx="0" cy="0" r="1" gradientUnits="userSpaceOnUse" gradientTransform="translate(5.50581 -8.63008) rotate(-85.7853) scale(1.23768 1.10586)">
<stop stop-color="#E38200"/>
<stop offset="1" stop-color="#CD6700"/>
</radialGradient>
<linearGradient id="paint6_linear_3_65" x1="8.65144" y1="11.9783" x2="6.36071" y2="19.3457" gradientUnits="userSpaceOnUse">
<stop stop-color="#F34462"/>
<stop offset="1" stop-color="#CC0820"/>
</linearGradient>
<radialGradient id="paint7_radial_3_65" cx="0" cy="0" r="1" gradientUnits="userSpaceOnUse" gradientTransform="translate(5.95495 15.7439) rotate(21.7628) scale(2.98497 2.93047)">
<stop stop-color="#FF7091" stop-opacity="0.7"/>
<stop offset="1" stop-color="#FE6D8E" stop-opacity="0"/>
</radialGradient>
<radialGradient id="paint8_radial_3_65" cx="0" cy="0" r="1" gradientUnits="userSpaceOnUse" gradientTransform="translate(1.82824 12.7286) rotate(21.7628) scale(2.98497 2.93047)">
<stop stop-color="#FF7091" stop-opacity="0.7"/>
<stop offset="1" stop-color="#FE6D8E" stop-opacity="0"/>
</radialGradient>
<radialGradient id="paint9_radial_3_65" cx="0" cy="0" r="1" gradientUnits="userSpaceOnUse" gradientTransform="translate(-15.3898 2.22483) rotate(100.831) scale(2.72249 3.26845)">
<stop stop-color="#9C0600" stop-opacity="0.9986"/>
<stop offset="1" stop-color="white"/>
</radialGradient>
<radialGradient id="paint10_radial_3_65" cx="0" cy="0" r="1" gradientUnits="userSpaceOnUse" gradientTransform="translate(3.84881 21.4876) rotate(32.4534) scale(1.56241 1.88588)">
<stop stop-color="#9C0600" stop-opacity="0.5"/>
<stop offset="1" stop-color="white"/>
</radialGradient>
<radialGradient id="paint11_radial_3_65" cx="0" cy="0" r="1" gradientUnits="userSpaceOnUse" gradientTransform="translate(7.15791 12.5722) rotate(-21.5163) scale(1.34287 1.69959)">
<stop stop-color="#9C0600" stop-opacity="0.5"/>
<stop offset="1" stop-color="white"/>
</radialGradient>
<radialGradient id="paint12_radial_3_65" cx="0" cy="0" r="1" gradientUnits="userSpaceOnUse" gradientTransform="translate(0.589837 20.29) rotate(35.9907) scale(1.83426 1.8955)">
<stop stop-color="#9C0600" stop-opacity="0.9986"/>
<stop offset="1" stop-color="white"/>
</radialGradient>
<radialGradient id="paint13_radial_3_65" cx="0" cy="0" r="1" gradientUnits="userSpaceOnUse" gradientTransform="translate(-13.0263 1.97988) rotate(112.664) scale(5.57441 5.66372)">
<stop stop-color="white" stop-opacity="0"/>
<stop offset="1" stop-color="#F08423"/>
</radialGradient>
<radialGradient id="paint14_radial_3_65" cx="0" cy="0" r="1" gradientUnits="userSpaceOnUse" gradientTransform="translate(-3.0663 7.85152) rotate(43.2026) scale(8.24282 6.78127)">
<stop stop-color="#EDA83A"/>
<stop offset="1" stop-color="#FFDC5E"/>
</radialGradient>
<radialGradient id="paint15_radial_3_65" cx="0" cy="0" r="1" gradientUnits="userSpaceOnUse" gradientTransform="translate(-14.7028 7.16616) rotate(131.418) scale(9.16776 8.23311)">
<stop stop-color="#F4B248"/>
<stop offset="1" stop-color="#FFDD5F"/>
</radialGradient>
</defs>
</svg>
