<svg width="20" height="20" viewBox="0 0 20 20" fill="none" xmlns="http://www.w3.org/2000/svg">
<mask id="path-1-outside-1_3_105" maskUnits="userSpaceOnUse" x="0" y="0" width="20" height="20" fill="black">
<rect fill="white" width="20" height="20"/>
<path d="M19 10C19 12.3869 18.0518 14.6761 16.364 16.364C14.6761 18.0518 12.3869 19 10 19C7.61305 19 5.32387 18.0518 3.63604 16.364C1.94821 14.6761 1 12.3869 1 10C1 7.61305 1.94821 5.32387 3.63604 3.63604C5.32387 1.94821 7.61305 1 10 1C12.3869 1 14.6761 1.94821 16.364 3.63604C18.0518 5.32387 19 7.61305 19 10Z"/>
</mask>
<path d="M19 10C19 12.3869 18.0518 14.6761 16.364 16.364C14.6761 18.0518 12.3869 19 10 19C7.61305 19 5.32387 18.0518 3.63604 16.364C1.94821 14.6761 1 12.3869 1 10C1 7.61305 1.94821 5.32387 3.63604 3.63604C5.32387 1.94821 7.61305 1 10 1C12.3869 1 14.6761 1.94821 16.364 3.63604C18.0518 5.32387 19 7.61305 19 10Z" fill="url(#paint0_linear_3_105)"/>
<path d="M10 19V20V19ZM1 10H0H1ZM10 1V0V1ZM18 10C18 12.1217 17.1571 14.1566 15.6569 15.6569L17.0711 17.0711C18.9464 15.1957 20 12.6522 20 10H18ZM15.6569 15.6569C14.1566 17.1571 12.1217 18 10 18V20C12.6522 20 15.1957 18.9464 17.0711 17.0711L15.6569 15.6569ZM10 18C7.87827 18 5.84344 17.1571 4.34315 15.6569L2.92893 17.0711C4.8043 18.9464 7.34784 20 10 20V18ZM4.34315 15.6569C2.84285 14.1566 2 12.1217 2 10H0C0 12.6522 1.05357 15.1957 2.92893 17.0711L4.34315 15.6569ZM2 10C2 7.87827 2.84285 5.84344 4.34315 4.34315L2.92893 2.92893C1.05357 4.8043 0 7.34784 0 10H2ZM4.34315 4.34315C5.84344 2.84285 7.87827 2 10 2V0C7.34784 0 4.8043 1.05357 2.92893 2.92893L4.34315 4.34315ZM10 2C12.1217 2 14.1566 2.84285 15.6569 4.34315L17.0711 2.92893C15.1957 1.05357 12.6522 0 10 0V2ZM15.6569 4.34315C17.1571 5.84344 18 7.87827 18 10H20C20 7.34784 18.9464 4.8043 17.0711 2.92893L15.6569 4.34315Z" fill="white" mask="url(#path-1-outside-1_3_105)"/>
<path d="M4.375 10.009C4.375 12.2759 5.50675 16.75 10 16.75C14.4921 16.75 15.625 12.2759 15.625 10.009C15.625 9.83013 13.8138 8.875 10 8.875C6.18625 8.875 4.375 9.83013 4.375 10.009Z" fill="url(#paint1_linear_3_105)"/>
<path d="M6.10861 15.0625C7.01311 16.1819 8.25399 16.75 10.0112 16.75C11.7696 16.75 12.9981 16.1819 13.9026 15.0625C13.2827 14.401 12.1037 13.375 10.0112 13.375C7.91874 13.375 6.72961 14.401 6.10861 15.0625Z" fill="url(#paint2_linear_3_105)"/>
<path d="M7.98962 5.662C8.2855 5.8735 8.55437 6.17388 8.45087 6.5485C8.371 6.83425 8.23262 6.96362 7.97612 6.96588C7.09862 6.97825 6.05462 7.25275 5.15687 7.65438C5.08375 7.687 4.93525 7.75338 4.78337 7.75C4.64387 7.74662 4.501 7.68475 4.4155 7.48338C4.34012 7.30675 4.33337 7.04688 4.726 6.81063C5.33912 6.43937 6.14012 6.27062 6.87362 6.13112C6.41301 5.79075 5.91701 5.50108 5.39425 5.26712C4.91387 5.04887 4.96675 4.753 5.03087 4.59213C5.17375 4.2355 5.716 4.37163 6.24362 4.62138C6.85905 4.90881 7.444 5.25744 7.98962 5.662ZM12.0137 5.662C12.5585 5.25727 13.1427 4.90862 13.7575 4.62138C14.2862 4.37163 14.8262 4.2355 14.9702 4.59213C15.0344 4.753 15.0872 5.04887 14.6069 5.26712C14.0847 5.50084 13.5894 5.79054 13.1297 6.13112C13.861 6.2695 14.6631 6.43937 15.2751 6.81063C15.6677 7.04688 15.6599 7.30562 15.5856 7.48338C15.499 7.68588 15.3572 7.74662 15.2177 7.75C15.0659 7.75338 14.9174 7.687 14.8442 7.65438C13.9476 7.25275 12.9036 6.97938 12.0272 6.96588C11.7707 6.96362 11.6324 6.83425 11.5525 6.54962C11.4501 6.175 11.7179 5.87462 12.0137 5.66312V5.662Z" fill="#2A3755"/>
<defs>
<linearGradient id="paint0_linear_3_105" x1="10" y1="2.845" x2="10" y2="19" gradientUnits="userSpaceOnUse">
<stop stop-color="#FEEA70"/>
<stop offset="1" stop-color="#F69B30"/>
</linearGradient>
<linearGradient id="paint1_linear_3_105" x1="10" y1="8.875" x2="10" y2="16.75" gradientUnits="userSpaceOnUse">
<stop stop-color="#472315"/>
<stop offset="1" stop-color="#8B3A0E"/>
</linearGradient>
<linearGradient id="paint2_linear_3_105" x1="10.0056" y1="13.375" x2="10.0056" y2="16.1392" gradientUnits="userSpaceOnUse">
<stop stop-color="#FC607C"/>
<stop offset="1" stop-color="#D91F3A"/>
</linearGradient>
</defs>
</svg>
