<svg width="20" height="20" viewBox="0 0 20 20" fill="none" xmlns="http://www.w3.org/2000/svg">
<mask id="path-1-outside-1_3_95" maskUnits="userSpaceOnUse" x="0" y="0" width="20" height="20" fill="black">
<rect fill="white" width="20" height="20"/>
<path d="M19 10C19 12.3869 18.0518 14.6761 16.364 16.364C14.6761 18.0518 12.3869 19 10 19C7.61305 19 5.32387 18.0518 3.63604 16.364C1.94821 14.6761 1 12.3869 1 10C1 7.61305 1.94821 5.32387 3.63604 3.63604C5.32387 1.94821 7.61305 1 10 1C12.3869 1 14.6761 1.94821 16.364 3.63604C18.0518 5.32387 19 7.61305 19 10Z"/>
</mask>
<path d="M19 10C19 12.3869 18.0518 14.6761 16.364 16.364C14.6761 18.0518 12.3869 19 10 19C7.61305 19 5.32387 18.0518 3.63604 16.364C1.94821 14.6761 1 12.3869 1 10C1 7.61305 1.94821 5.32387 3.63604 3.63604C5.32387 1.94821 7.61305 1 10 1C12.3869 1 14.6761 1.94821 16.364 3.63604C18.0518 5.32387 19 7.61305 19 10Z" fill="url(#paint0_linear_3_95)"/>
<path d="M10 19V20V19ZM1 10H0H1ZM10 1V0V1ZM18 10C18 12.1217 17.1571 14.1566 15.6569 15.6569L17.0711 17.0711C18.9464 15.1957 20 12.6522 20 10H18ZM15.6569 15.6569C14.1566 17.1571 12.1217 18 10 18V20C12.6522 20 15.1957 18.9464 17.0711 17.0711L15.6569 15.6569ZM10 18C7.87827 18 5.84344 17.1571 4.34315 15.6569L2.92893 17.0711C4.8043 18.9464 7.34784 20 10 20V18ZM4.34315 15.6569C2.84285 14.1566 2 12.1217 2 10H0C0 12.6522 1.05357 15.1957 2.92893 17.0711L4.34315 15.6569ZM2 10C2 7.87827 2.84285 5.84344 4.34315 4.34315L2.92893 2.92893C1.05357 4.8043 0 7.34784 0 10H2ZM4.34315 4.34315C5.84344 2.84285 7.87827 2 10 2V0C7.34784 0 4.8043 1.05357 2.92893 2.92893L4.34315 4.34315ZM10 2C12.1217 2 14.1566 2.84285 15.6569 4.34315L17.0711 2.92893C15.1957 1.05357 12.6522 0 10 0V2ZM15.6569 4.34315C17.1571 5.84344 18 7.87827 18 10H20C20 7.34784 18.9464 4.8043 17.0711 2.92893L15.6569 4.34315Z" fill="white" mask="url(#path-1-outside-1_3_95)"/>
<path d="M7.34839 13.249C7.17064 15.3246 8.16514 16.75 10 16.75C11.8338 16.75 12.8294 15.3246 12.6516 13.249C12.475 11.1722 11.3973 10 10 10C8.60277 10 7.52502 11.1722 7.34839 13.249Z" fill="url(#paint1_linear_3_95)"/>
<path d="M4.9375 7.1875C4.9375 6.256 5.56638 5.5 6.34375 5.5C7.12112 5.5 7.75 6.256 7.75 7.1875C7.75 8.12013 7.12112 8.875 6.34375 8.875C5.56638 8.875 4.9375 8.12013 4.9375 7.1875ZM12.25 7.1875C12.25 6.256 12.88 5.5 13.6562 5.5C14.4336 5.5 15.0625 6.256 15.0625 7.1875C15.0625 8.12013 14.4336 8.875 13.6562 8.875C12.88 8.875 12.25 8.12013 12.25 7.1875Z" fill="url(#paint2_linear_3_95)"/>
<g filter="url(#filter0_i_3_95)">
<path d="M4.9375 7.1875C4.9375 6.256 5.56638 5.5 6.34375 5.5C7.12112 5.5 7.75 6.256 7.75 7.1875C7.75 8.12013 7.12112 8.875 6.34375 8.875C5.56638 8.875 4.9375 8.12013 4.9375 7.1875ZM12.25 7.1875C12.25 6.256 12.88 5.5 13.6562 5.5C14.4336 5.5 15.0625 6.256 15.0625 7.1875C15.0625 8.12013 14.4336 8.875 13.6562 8.875C12.88 8.875 12.25 8.12013 12.25 7.1875Z" fill="black"/>
</g>
<path d="M6.04112 6.13782C6.25037 6.18507 6.36737 6.42132 6.30212 6.66545C6.238 6.9107 6.01637 7.07045 5.80712 7.0232C5.59787 6.97595 5.48087 6.7397 5.54612 6.49445C5.61025 6.25145 5.83187 6.08945 6.04112 6.13782ZM13.5314 6.2087C13.7631 6.26157 13.8936 6.5237 13.8216 6.7937C13.7496 7.06707 13.5044 7.2437 13.2715 7.19195C13.0397 7.1402 12.9092 6.87695 12.9812 6.60582C13.0521 6.33357 13.2985 6.15582 13.5325 6.2087H13.5314Z" fill="#4E506A"/>
<g filter="url(#filter1_d_3_95)">
<path d="M13.4515 2.90805C13.51 2.90242 13.5685 2.90017 13.6281 2.90017C14.176 2.90017 14.7419 3.12967 15.1716 3.53242C15.2491 3.60629 15.295 3.70733 15.2996 3.81431C15.3043 3.92129 15.2672 4.0259 15.1964 4.10617C15.1621 4.14554 15.1202 4.17758 15.0733 4.20035C15.0263 4.22312 14.9753 4.23616 14.9231 4.23868C14.871 4.2412 14.8189 4.23316 14.77 4.21503C14.721 4.19689 14.6763 4.16905 14.6384 4.13317C14.329 3.8418 13.9004 3.68317 13.5224 3.71805C13.3912 3.72786 13.2639 3.76629 13.1492 3.83062C13.0345 3.89496 12.9353 3.98364 12.8586 4.09042C12.8278 4.13228 12.7889 4.16754 12.7442 4.19412C12.6996 4.2207 12.6501 4.23807 12.5986 4.2452C12.5471 4.25233 12.4947 4.24908 12.4445 4.23563C12.3943 4.22219 12.3473 4.19883 12.3062 4.16692C12.2222 4.10017 12.1673 4.00338 12.1533 3.89697C12.1392 3.79056 12.167 3.68285 12.2309 3.59655C12.3726 3.40051 12.5551 3.23746 12.7658 3.11862C12.9765 2.99977 13.2104 2.92794 13.4515 2.90805ZM4.82837 3.53242C5.24548 3.13574 5.79632 2.9101 6.37187 2.90017C6.64377 2.89428 6.91303 2.95459 7.15644 3.0759C7.39986 3.19721 7.61012 3.3759 7.76912 3.59655C7.83279 3.68281 7.86062 3.79036 7.84678 3.89668C7.83294 4.003 7.7785 4.09984 7.69487 4.16692C7.65374 4.19886 7.60665 4.22224 7.55635 4.2357C7.50605 4.24916 7.45357 4.25242 7.402 4.24529C7.35042 4.23816 7.30079 4.22079 7.25603 4.19419C7.21127 4.1676 7.17229 4.13231 7.14137 4.09042C7.06459 3.98369 6.9654 3.89505 6.85073 3.83073C6.73607 3.7664 6.60872 3.72794 6.47762 3.71805C6.10074 3.68317 5.67099 3.8418 5.36162 4.13317C5.32372 4.16905 5.27895 4.19689 5.23002 4.21503C5.18108 4.23316 5.12898 4.2412 5.07686 4.23868C5.02473 4.23616 4.97365 4.22312 4.9267 4.20035C4.87974 4.17758 4.83787 4.14554 4.80362 4.10617C4.73274 4.0259 4.69572 3.92129 4.70034 3.81431C4.70495 3.70733 4.75084 3.60629 4.82837 3.53242Z" fill="black"/>
</g>
<path d="M13.4515 2.90805C13.51 2.90242 13.5685 2.90017 13.6281 2.90017C14.176 2.90017 14.7419 3.12967 15.1716 3.53242C15.2491 3.60629 15.295 3.70733 15.2996 3.81431C15.3043 3.92129 15.2672 4.0259 15.1964 4.10617C15.1621 4.14554 15.1202 4.17758 15.0733 4.20035C15.0263 4.22312 14.9753 4.23616 14.9231 4.23868C14.871 4.2412 14.8189 4.23316 14.77 4.21503C14.721 4.19689 14.6763 4.16905 14.6384 4.13317C14.329 3.8418 13.9004 3.68317 13.5224 3.71805C13.3912 3.72786 13.2639 3.76629 13.1492 3.83062C13.0345 3.89496 12.9353 3.98364 12.8586 4.09042C12.8278 4.13228 12.7889 4.16754 12.7442 4.19412C12.6996 4.2207 12.6501 4.23807 12.5986 4.2452C12.5471 4.25233 12.4947 4.24908 12.4445 4.23563C12.3943 4.22219 12.3473 4.19883 12.3062 4.16692C12.2222 4.10017 12.1673 4.00338 12.1533 3.89697C12.1392 3.79056 12.167 3.68285 12.2309 3.59655C12.3726 3.40051 12.5551 3.23746 12.7658 3.11862C12.9765 2.99977 13.2104 2.92794 13.4515 2.90805ZM4.82837 3.53242C5.24548 3.13574 5.79632 2.9101 6.37187 2.90017C6.64377 2.89428 6.91303 2.95459 7.15644 3.0759C7.39986 3.19721 7.61012 3.3759 7.76912 3.59655C7.83279 3.68281 7.86062 3.79036 7.84678 3.89668C7.83294 4.003 7.7785 4.09984 7.69487 4.16692C7.65374 4.19886 7.60665 4.22224 7.55635 4.2357C7.50605 4.24916 7.45357 4.25242 7.402 4.24529C7.35042 4.23816 7.30079 4.22079 7.25603 4.19419C7.21127 4.1676 7.17229 4.13231 7.14137 4.09042C7.06459 3.98369 6.9654 3.89505 6.85073 3.83073C6.73607 3.7664 6.60872 3.72794 6.47762 3.71805C6.10074 3.68317 5.67099 3.8418 5.36162 4.13317C5.32372 4.16905 5.27895 4.19689 5.23002 4.21503C5.18108 4.23316 5.12898 4.2412 5.07686 4.23868C5.02473 4.23616 4.97365 4.22312 4.9267 4.20035C4.87974 4.17758 4.83787 4.14554 4.80362 4.10617C4.73274 4.0259 4.69572 3.92129 4.70034 3.81431C4.70495 3.70733 4.75084 3.60629 4.82837 3.53242Z" fill="url(#paint3_linear_3_95)"/>
<defs>
<filter id="filter0_i_3_95" x="4.9375" y="5.5" width="10.125" height="3.375" filterUnits="userSpaceOnUse" color-interpolation-filters="sRGB">
<feFlood flood-opacity="0" result="BackgroundImageFix"/>
<feBlend mode="normal" in="SourceGraphic" in2="BackgroundImageFix" result="shape"/>
<feColorMatrix in="SourceAlpha" type="matrix" values="0 0 0 0 0 0 0 0 0 0 0 0 0 0 0 0 0 0 127 0" result="hardAlpha"/>
<feOffset/>
<feGaussianBlur stdDeviation="0.5"/>
<feComposite in2="hardAlpha" operator="arithmetic" k2="-1" k3="1"/>
<feColorMatrix type="matrix" values="0 0 0 0 0.0980392 0 0 0 0 0.101961 0 0 0 0 0.2 0 0 0 0.819684 0"/>
<feBlend mode="normal" in2="shape" result="effect1_innerShadow_3_95"/>
</filter>
<filter id="filter1_d_3_95" x="1.69995" y="0.89978" width="16.6001" height="7.34924" filterUnits="userSpaceOnUse" color-interpolation-filters="sRGB">
<feFlood flood-opacity="0" result="BackgroundImageFix"/>
<feColorMatrix in="SourceAlpha" type="matrix" values="0 0 0 0 0 0 0 0 0 0 0 0 0 0 0 0 0 0 127 0" result="hardAlpha"/>
<feOffset dy="1"/>
<feGaussianBlur stdDeviation="1.5"/>
<feColorMatrix type="matrix" values="0 0 0 0 0.803922 0 0 0 0 0.388235 0 0 0 0 0.00392157 0 0 0 0.145679 0"/>
<feBlend mode="normal" in2="BackgroundImageFix" result="effect1_dropShadow_3_95"/>
<feBlend mode="normal" in="SourceGraphic" in2="effect1_dropShadow_3_95" result="shape"/>
</filter>
<linearGradient id="paint0_linear_3_95" x1="10" y1="2.845" x2="10" y2="19" gradientUnits="userSpaceOnUse">
<stop stop-color="#FEEA70"/>
<stop offset="1" stop-color="#F69B30"/>
</linearGradient>
<linearGradient id="paint1_linear_3_95" x1="10" y1="10" x2="10" y2="16.75" gradientUnits="userSpaceOnUse">
<stop stop-color="#472315"/>
<stop offset="1" stop-color="#8B3A0E"/>
</linearGradient>
<linearGradient id="paint2_linear_3_95" x1="10" y1="5.5" x2="10" y2="8.875" gradientUnits="userSpaceOnUse">
<stop stop-color="#191A33"/>
<stop offset="0.87162" stop-color="#3B426A"/>
</linearGradient>
<linearGradient id="paint3_linear_3_95" x1="9.99999" y1="2.89978" x2="9.99999" y2="4.24897" gradientUnits="userSpaceOnUse">
<stop stop-color="#E78E0D"/>
<stop offset="1" stop-color="#CB6000"/>
</linearGradient>
</defs>
</svg>
