<svg width="469" height="42" viewBox="0 0 469 42" fill="none" xmlns="http://www.w3.org/2000/svg">
<path d="M76.14 15.29H78.015V24.38H83.46V26H76.14V15.29ZM84.5583 15.29H86.2683V16.91H84.5583V15.29ZM84.5583 18.245H86.2683V26H84.5583V18.245ZM88.1764 15.29H89.8864V21.38L92.9764 18.245H95.0764L92.1064 21.095L95.3614 26H93.2764L90.9064 22.235L89.8864 23.225V26H88.1764V15.29ZM101.513 21.44C101.493 21.17 101.433 20.91 101.333 20.66C101.243 20.41 101.113 20.195 100.943 20.015C100.783 19.825 100.583 19.675 100.343 19.565C100.113 19.445 99.8531 19.385 99.5631 19.385C99.2631 19.385 98.9881 19.44 98.7381 19.55C98.4981 19.65 98.2881 19.795 98.1081 19.985C97.9381 20.165 97.7981 20.38 97.6881 20.63C97.5881 20.88 97.5331 21.15 97.5231 21.44H101.513ZM97.5231 22.565C97.5231 22.865 97.5631 23.155 97.6431 23.435C97.7331 23.715 97.8631 23.96 98.0331 24.17C98.2031 24.38 98.4181 24.55 98.6781 24.68C98.9381 24.8 99.2481 24.86 99.6081 24.86C100.108 24.86 100.508 24.755 100.808 24.545C101.118 24.325 101.348 24 101.498 23.57H103.118C103.028 23.99 102.873 24.365 102.653 24.695C102.433 25.025 102.168 25.305 101.858 25.535C101.548 25.755 101.198 25.92 100.808 26.03C100.428 26.15 100.028 26.21 99.6081 26.21C98.9981 26.21 98.4581 26.11 97.9881 25.91C97.5181 25.71 97.1181 25.43 96.7881 25.07C96.4681 24.71 96.2231 24.28 96.0531 23.78C95.8931 23.28 95.8131 22.73 95.8131 22.13C95.8131 21.58 95.8981 21.06 96.0681 20.57C96.2481 20.07 96.4981 19.635 96.8181 19.265C97.1481 18.885 97.5431 18.585 98.0031 18.365C98.4631 18.145 98.9831 18.035 99.5631 18.035C100.173 18.035 100.718 18.165 101.198 18.425C101.688 18.675 102.093 19.01 102.413 19.43C102.733 19.85 102.963 20.335 103.103 20.885C103.253 21.425 103.293 21.985 103.223 22.565H97.5231Z" fill="#66676B"/>
<path d="M222.37 18.695C222.29 18.385 222.18 18.1 222.04 17.84C221.9 17.58 221.72 17.355 221.5 17.165C221.28 16.975 221.02 16.83 220.72 16.73C220.43 16.62 220.09 16.565 219.7 16.565C219.13 16.565 218.635 16.68 218.215 16.91C217.805 17.14 217.47 17.45 217.21 17.84C216.95 18.22 216.755 18.655 216.625 19.145C216.505 19.635 216.445 20.135 216.445 20.645C216.445 21.155 216.505 21.655 216.625 22.145C216.755 22.635 216.95 23.075 217.21 23.465C217.47 23.845 217.805 24.15 218.215 24.38C218.635 24.61 219.13 24.725 219.7 24.725C220.12 24.725 220.49 24.655 220.81 24.515C221.13 24.365 221.405 24.165 221.635 23.915C221.865 23.655 222.045 23.355 222.175 23.015C222.305 22.675 222.39 22.31 222.43 21.92H224.26C224.22 22.56 224.08 23.145 223.84 23.675C223.61 24.205 223.295 24.665 222.895 25.055C222.495 25.435 222.025 25.73 221.485 25.94C220.945 26.15 220.35 26.255 219.7 26.255C218.9 26.255 218.18 26.11 217.54 25.82C216.91 25.52 216.375 25.115 215.935 24.605C215.495 24.095 215.155 23.5 214.915 22.82C214.685 22.14 214.57 21.415 214.57 20.645C214.57 19.885 214.685 19.165 214.915 18.485C215.155 17.805 215.495 17.21 215.935 16.7C216.375 16.19 216.91 15.785 217.54 15.485C218.18 15.185 218.9 15.035 219.7 15.035C220.3 15.035 220.865 15.12 221.395 15.29C221.925 15.45 222.39 15.69 222.79 16.01C223.2 16.32 223.53 16.7 223.78 17.15C224.03 17.6 224.185 18.115 224.245 18.695H222.37ZM229.28 26.21C228.66 26.21 228.105 26.11 227.615 25.91C227.135 25.7 226.725 25.415 226.385 25.055C226.055 24.695 225.8 24.265 225.62 23.765C225.45 23.265 225.365 22.715 225.365 22.115C225.365 21.525 225.45 20.98 225.62 20.48C225.8 19.98 226.055 19.55 226.385 19.19C226.725 18.83 227.135 18.55 227.615 18.35C228.105 18.14 228.66 18.035 229.28 18.035C229.9 18.035 230.45 18.14 230.93 18.35C231.42 18.55 231.83 18.83 232.16 19.19C232.5 19.55 232.755 19.98 232.925 20.48C233.105 20.98 233.195 21.525 233.195 22.115C233.195 22.715 233.105 23.265 232.925 23.765C232.755 24.265 232.5 24.695 232.16 25.055C231.83 25.415 231.42 25.7 230.93 25.91C230.45 26.11 229.9 26.21 229.28 26.21ZM229.28 24.86C229.66 24.86 229.99 24.78 230.27 24.62C230.55 24.46 230.78 24.25 230.96 23.99C231.14 23.73 231.27 23.44 231.35 23.12C231.44 22.79 231.485 22.455 231.485 22.115C231.485 21.785 231.44 21.455 231.35 21.125C231.27 20.795 231.14 20.505 230.96 20.255C230.78 19.995 230.55 19.785 230.27 19.625C229.99 19.465 229.66 19.385 229.28 19.385C228.9 19.385 228.57 19.465 228.29 19.625C228.01 19.785 227.78 19.995 227.6 20.255C227.42 20.505 227.285 20.795 227.195 21.125C227.115 21.455 227.075 21.785 227.075 22.115C227.075 22.455 227.115 22.79 227.195 23.12C227.285 23.44 227.42 23.73 227.6 23.99C227.78 24.25 228.01 24.46 228.29 24.62C228.57 24.78 228.9 24.86 229.28 24.86ZM234.617 18.245H236.237V19.325H236.282C236.412 19.135 236.552 18.96 236.702 18.8C236.852 18.64 237.017 18.505 237.197 18.395C237.387 18.285 237.602 18.2 237.842 18.14C238.082 18.07 238.357 18.035 238.667 18.035C239.137 18.035 239.572 18.14 239.972 18.35C240.382 18.56 240.672 18.885 240.842 19.325C241.132 18.925 241.467 18.61 241.847 18.38C242.227 18.15 242.702 18.035 243.272 18.035C244.092 18.035 244.727 18.235 245.177 18.635C245.637 19.035 245.867 19.705 245.867 20.645V26H244.157V21.47C244.157 21.16 244.147 20.88 244.127 20.63C244.107 20.37 244.047 20.15 243.947 19.97C243.857 19.78 243.717 19.635 243.527 19.535C243.337 19.435 243.077 19.385 242.747 19.385C242.167 19.385 241.747 19.565 241.487 19.925C241.227 20.285 241.097 20.795 241.097 21.455V26H239.387V21.02C239.387 20.48 239.287 20.075 239.087 19.805C238.897 19.525 238.542 19.385 238.022 19.385C237.802 19.385 237.587 19.43 237.377 19.52C237.177 19.61 236.997 19.74 236.837 19.91C236.687 20.08 236.562 20.29 236.462 20.54C236.372 20.79 236.327 21.075 236.327 21.395V26H234.617V18.245ZM247.669 18.245H249.289V19.325H249.334C249.464 19.135 249.604 18.96 249.754 18.8C249.904 18.64 250.069 18.505 250.249 18.395C250.439 18.285 250.654 18.2 250.894 18.14C251.134 18.07 251.409 18.035 251.719 18.035C252.189 18.035 252.624 18.14 253.024 18.35C253.434 18.56 253.724 18.885 253.894 19.325C254.184 18.925 254.519 18.61 254.899 18.38C255.279 18.15 255.754 18.035 256.324 18.035C257.144 18.035 257.779 18.235 258.229 18.635C258.689 19.035 258.919 19.705 258.919 20.645V26H257.209V21.47C257.209 21.16 257.199 20.88 257.179 20.63C257.159 20.37 257.099 20.15 256.999 19.97C256.909 19.78 256.769 19.635 256.579 19.535C256.389 19.435 256.129 19.385 255.799 19.385C255.219 19.385 254.799 19.565 254.539 19.925C254.279 20.285 254.149 20.795 254.149 21.455V26H252.439V21.02C252.439 20.48 252.339 20.075 252.139 19.805C251.949 19.525 251.594 19.385 251.074 19.385C250.854 19.385 250.639 19.43 250.429 19.52C250.229 19.61 250.049 19.74 249.889 19.91C249.739 20.08 249.614 20.29 249.514 20.54C249.424 20.79 249.379 21.075 249.379 21.395V26H247.669V18.245ZM266.045 21.44C266.025 21.17 265.965 20.91 265.865 20.66C265.775 20.41 265.645 20.195 265.475 20.015C265.315 19.825 265.115 19.675 264.875 19.565C264.645 19.445 264.385 19.385 264.095 19.385C263.795 19.385 263.52 19.44 263.27 19.55C263.03 19.65 262.82 19.795 262.64 19.985C262.47 20.165 262.33 20.38 262.22 20.63C262.12 20.88 262.065 21.15 262.055 21.44H266.045ZM262.055 22.565C262.055 22.865 262.095 23.155 262.175 23.435C262.265 23.715 262.395 23.96 262.565 24.17C262.735 24.38 262.95 24.55 263.21 24.68C263.47 24.8 263.78 24.86 264.14 24.86C264.64 24.86 265.04 24.755 265.34 24.545C265.65 24.325 265.88 24 266.03 23.57H267.65C267.56 23.99 267.405 24.365 267.185 24.695C266.965 25.025 266.7 25.305 266.39 25.535C266.08 25.755 265.73 25.92 265.34 26.03C264.96 26.15 264.56 26.21 264.14 26.21C263.53 26.21 262.99 26.11 262.52 25.91C262.05 25.71 261.65 25.43 261.32 25.07C261 24.71 260.755 24.28 260.585 23.78C260.425 23.28 260.345 22.73 260.345 22.13C260.345 21.58 260.43 21.06 260.6 20.57C260.78 20.07 261.03 19.635 261.35 19.265C261.68 18.885 262.075 18.585 262.535 18.365C262.995 18.145 263.515 18.035 264.095 18.035C264.705 18.035 265.25 18.165 265.73 18.425C266.22 18.675 266.625 19.01 266.945 19.43C267.265 19.85 267.495 20.335 267.635 20.885C267.785 21.425 267.825 21.985 267.755 22.565H262.055ZM269.055 18.245H270.675V19.385L270.705 19.415C270.965 18.985 271.305 18.65 271.725 18.41C272.145 18.16 272.61 18.035 273.12 18.035C273.97 18.035 274.64 18.255 275.13 18.695C275.62 19.135 275.865 19.795 275.865 20.675V26H274.155V21.125C274.135 20.515 274.005 20.075 273.765 19.805C273.525 19.525 273.15 19.385 272.64 19.385C272.35 19.385 272.09 19.44 271.86 19.55C271.63 19.65 271.435 19.795 271.275 19.985C271.115 20.165 270.99 20.38 270.9 20.63C270.81 20.88 270.765 21.145 270.765 21.425V26H269.055V18.245ZM276.889 18.245H278.179V15.92H279.889V18.245H281.434V19.52H279.889V23.66C279.889 23.84 279.894 23.995 279.904 24.125C279.924 24.255 279.959 24.365 280.009 24.455C280.069 24.545 280.154 24.615 280.264 24.665C280.374 24.705 280.524 24.725 280.714 24.725C280.834 24.725 280.954 24.725 281.074 24.725C281.194 24.715 281.314 24.695 281.434 24.665V25.985C281.244 26.005 281.059 26.025 280.879 26.045C280.699 26.065 280.514 26.075 280.324 26.075C279.874 26.075 279.509 26.035 279.229 25.955C278.959 25.865 278.744 25.74 278.584 25.58C278.434 25.41 278.329 25.2 278.269 24.95C278.219 24.7 278.189 24.415 278.179 24.095V19.52H276.889V18.245Z" fill="#66676B"/>
<path d="M383.37 22.43C383.37 22.84 383.44 23.19 383.58 23.48C383.72 23.77 383.915 24.01 384.165 24.2C384.415 24.38 384.7 24.515 385.02 24.605C385.35 24.685 385.705 24.725 386.085 24.725C386.495 24.725 386.845 24.68 387.135 24.59C387.425 24.49 387.66 24.365 387.84 24.215C388.02 24.065 388.15 23.895 388.23 23.705C388.31 23.505 388.35 23.305 388.35 23.105C388.35 22.695 388.255 22.395 388.065 22.205C387.885 22.005 387.685 21.865 387.465 21.785C387.085 21.645 386.64 21.515 386.13 21.395C385.63 21.265 385.01 21.1 384.27 20.9C383.81 20.78 383.425 20.625 383.115 20.435C382.815 20.235 382.575 20.015 382.395 19.775C382.215 19.535 382.085 19.28 382.005 19.01C381.935 18.74 381.9 18.465 381.9 18.185C381.9 17.645 382.01 17.18 382.23 16.79C382.46 16.39 382.76 16.06 383.13 15.8C383.5 15.54 383.92 15.35 384.39 15.23C384.86 15.1 385.335 15.035 385.815 15.035C386.375 15.035 386.9 15.11 387.39 15.26C387.89 15.4 388.325 15.615 388.695 15.905C389.075 16.195 389.375 16.555 389.595 16.985C389.815 17.405 389.925 17.895 389.925 18.455H388.05C388 17.765 387.765 17.28 387.345 17C386.925 16.71 386.39 16.565 385.74 16.565C385.52 16.565 385.295 16.59 385.065 16.64C384.835 16.68 384.625 16.755 384.435 16.865C384.245 16.965 384.085 17.105 383.955 17.285C383.835 17.465 383.775 17.69 383.775 17.96C383.775 18.34 383.89 18.64 384.12 18.86C384.36 19.07 384.67 19.23 385.05 19.34C385.09 19.35 385.245 19.395 385.515 19.475C385.795 19.545 386.105 19.625 386.445 19.715C386.785 19.805 387.115 19.895 387.435 19.985C387.765 20.065 388 20.125 388.14 20.165C388.49 20.275 388.795 20.425 389.055 20.615C389.315 20.805 389.53 21.025 389.7 21.275C389.88 21.515 390.01 21.775 390.09 22.055C390.18 22.335 390.225 22.615 390.225 22.895C390.225 23.495 390.1 24.01 389.85 24.44C389.61 24.86 389.29 25.205 388.89 25.475C388.49 25.745 388.035 25.94 387.525 26.06C387.015 26.19 386.495 26.255 385.965 26.255C385.355 26.255 384.78 26.18 384.24 26.03C383.7 25.88 383.23 25.65 382.83 25.34C382.43 25.03 382.11 24.635 381.87 24.155C381.63 23.665 381.505 23.09 381.495 22.43H383.37ZM391.627 15.29H393.337V19.265H393.367C393.577 18.915 393.887 18.625 394.297 18.395C394.717 18.155 395.182 18.035 395.692 18.035C396.542 18.035 397.212 18.255 397.702 18.695C398.192 19.135 398.437 19.795 398.437 20.675V26H396.727V21.125C396.707 20.515 396.577 20.075 396.337 19.805C396.097 19.525 395.722 19.385 395.212 19.385C394.922 19.385 394.662 19.44 394.432 19.55C394.202 19.65 394.007 19.795 393.847 19.985C393.687 20.165 393.562 20.38 393.472 20.63C393.382 20.88 393.337 21.145 393.337 21.425V26H391.627V15.29ZM406.735 24.275C406.735 24.485 406.76 24.635 406.81 24.725C406.87 24.815 406.98 24.86 407.14 24.86C407.19 24.86 407.25 24.86 407.32 24.86C407.39 24.86 407.47 24.85 407.56 24.83V26.015C407.5 26.035 407.42 26.055 407.32 26.075C407.23 26.105 407.135 26.13 407.035 26.15C406.935 26.17 406.835 26.185 406.735 26.195C406.635 26.205 406.55 26.21 406.48 26.21C406.13 26.21 405.84 26.14 405.61 26C405.38 25.86 405.23 25.615 405.16 25.265C404.82 25.595 404.4 25.835 403.9 25.985C403.41 26.135 402.935 26.21 402.475 26.21C402.125 26.21 401.79 26.16 401.47 26.06C401.15 25.97 400.865 25.835 400.615 25.655C400.375 25.465 400.18 25.23 400.03 24.95C399.89 24.66 399.82 24.325 399.82 23.945C399.82 23.465 399.905 23.075 400.075 22.775C400.255 22.475 400.485 22.24 400.765 22.07C401.055 21.9 401.375 21.78 401.725 21.71C402.085 21.63 402.445 21.57 402.805 21.53C403.115 21.47 403.41 21.43 403.69 21.41C403.97 21.38 404.215 21.335 404.425 21.275C404.645 21.215 404.815 21.125 404.935 21.005C405.065 20.875 405.13 20.685 405.13 20.435C405.13 20.215 405.075 20.035 404.965 19.895C404.865 19.755 404.735 19.65 404.575 19.58C404.425 19.5 404.255 19.45 404.065 19.43C403.875 19.4 403.695 19.385 403.525 19.385C403.045 19.385 402.65 19.485 402.34 19.685C402.03 19.885 401.855 20.195 401.815 20.615H400.105C400.135 20.115 400.255 19.7 400.465 19.37C400.675 19.04 400.94 18.775 401.26 18.575C401.59 18.375 401.96 18.235 402.37 18.155C402.78 18.075 403.2 18.035 403.63 18.035C404.01 18.035 404.385 18.075 404.755 18.155C405.125 18.235 405.455 18.365 405.745 18.545C406.045 18.725 406.285 18.96 406.465 19.25C406.645 19.53 406.735 19.875 406.735 20.285V24.275ZM405.025 22.115C404.765 22.285 404.445 22.39 404.065 22.43C403.685 22.46 403.305 22.51 402.925 22.58C402.745 22.61 402.57 22.655 402.4 22.715C402.23 22.765 402.08 22.84 401.95 22.94C401.82 23.03 401.715 23.155 401.635 23.315C401.565 23.465 401.53 23.65 401.53 23.87C401.53 24.06 401.585 24.22 401.695 24.35C401.805 24.48 401.935 24.585 402.085 24.665C402.245 24.735 402.415 24.785 402.595 24.815C402.785 24.845 402.955 24.86 403.105 24.86C403.295 24.86 403.5 24.835 403.72 24.785C403.94 24.735 404.145 24.65 404.335 24.53C404.535 24.41 404.7 24.26 404.83 24.08C404.96 23.89 405.025 23.66 405.025 23.39V22.115ZM408.575 18.245H410.18V19.745H410.21C410.26 19.535 410.355 19.33 410.495 19.13C410.645 18.93 410.82 18.75 411.02 18.59C411.23 18.42 411.46 18.285 411.71 18.185C411.96 18.085 412.215 18.035 412.475 18.035C412.675 18.035 412.81 18.04 412.88 18.05C412.96 18.06 413.04 18.07 413.12 18.08V19.73C413 19.71 412.875 19.695 412.745 19.685C412.625 19.665 412.505 19.655 412.385 19.655C412.095 19.655 411.82 19.715 411.56 19.835C411.31 19.945 411.09 20.115 410.9 20.345C410.71 20.565 410.56 20.84 410.45 21.17C410.34 21.5 410.285 21.88 410.285 22.31V26H408.575V18.245ZM418.91 21.44C418.89 21.17 418.83 20.91 418.73 20.66C418.64 20.41 418.51 20.195 418.34 20.015C418.18 19.825 417.98 19.675 417.74 19.565C417.51 19.445 417.25 19.385 416.96 19.385C416.66 19.385 416.385 19.44 416.135 19.55C415.895 19.65 415.685 19.795 415.505 19.985C415.335 20.165 415.195 20.38 415.085 20.63C414.985 20.88 414.93 21.15 414.92 21.44H418.91ZM414.92 22.565C414.92 22.865 414.96 23.155 415.04 23.435C415.13 23.715 415.26 23.96 415.43 24.17C415.6 24.38 415.815 24.55 416.075 24.68C416.335 24.8 416.645 24.86 417.005 24.86C417.505 24.86 417.905 24.755 418.205 24.545C418.515 24.325 418.745 24 418.895 23.57H420.515C420.425 23.99 420.27 24.365 420.05 24.695C419.83 25.025 419.565 25.305 419.255 25.535C418.945 25.755 418.595 25.92 418.205 26.03C417.825 26.15 417.425 26.21 417.005 26.21C416.395 26.21 415.855 26.11 415.385 25.91C414.915 25.71 414.515 25.43 414.185 25.07C413.865 24.71 413.62 24.28 413.45 23.78C413.29 23.28 413.21 22.73 413.21 22.13C413.21 21.58 413.295 21.06 413.465 20.57C413.645 20.07 413.895 19.635 414.215 19.265C414.545 18.885 414.94 18.585 415.4 18.365C415.86 18.145 416.38 18.035 416.96 18.035C417.57 18.035 418.115 18.165 418.595 18.425C419.085 18.675 419.49 19.01 419.81 19.43C420.13 19.85 420.36 20.335 420.5 20.885C420.65 21.425 420.69 21.985 420.62 22.565H414.92Z" fill="#66676B"/>
<rect width="469" height="1" transform="matrix(1 0 0 -1 0 1)" fill="#CFD0D4"/>
<rect width="469" height="1" transform="matrix(1 0 0 -1 0 42)" fill="#CFD0D4"/>
<path fill-rule="evenodd" clip-rule="evenodd" d="M194 26.0001H194.965V29L198.93 26.0001H203C204.657 26.0001 206 24.657 206 23.0001V16C206 14.3431 204.657 13 203 13H194C192.343 13 191 14.3431 191 16V23.0001C191 24.657 192.343 26.0001 194 26.0001Z" stroke="#66676B" stroke-width="1.3"/>
<path fill-rule="evenodd" clip-rule="evenodd" d="M69 21.3282C69 20.7635 68.6875 20.2702 68.2228 20.0031C68.2132 19.9975 68.2093 19.9842 68.2185 19.9773C68.5869 19.696 68.8252 19.259 68.8252 18.7666C68.8252 17.9176 68.1214 17.229 67.2529 17.229H62.4478C63.3307 12.7091 61.105 11.8102 60.2181 12.0304C59.6883 12.1616 59.6319 12.0167 59.7281 13.0429L59.7736 14.7409C59.7779 14.9108 59.757 15.0841 59.7067 15.2561C59.6564 15.4282 59.5804 15.586 59.4846 15.728L57.1955 19.1033V27.4768L65.5932 27.476C66.4206 27.4308 67.078 26.7594 67.078 25.9397C67.078 25.6928 67.0173 25.4601 66.9115 25.2537C66.9071 25.2447 66.9089 25.2326 66.9189 25.2309C67.6546 25.1023 68.2136 24.4756 68.2136 23.7195C68.2136 23.3776 68.0982 23.0632 67.9055 22.8077C67.9007 22.8021 67.9037 22.7935 67.9112 22.7914C68.5428 22.5918 69 22.0121 69 21.3282ZM52 28H57.1955V17.4748H52V28Z" stroke="#66676B" stroke-width="1.3" stroke-linejoin="round"/>
<path fill-rule="evenodd" clip-rule="evenodd" d="M367.327 23.9675V27.3611C367.327 27.624 367.534 27.8371 367.79 27.8371C367.912 27.8371 368.03 27.787 368.117 27.6977L374.865 20.7551C375.045 20.5693 375.045 20.2679 374.865 20.082L368.117 13.1394C367.936 12.9535 367.643 12.9535 367.463 13.1394C367.376 13.2287 367.327 13.3497 367.327 13.476V17.0867C362.947 17.0867 359 23.6723 359 27.0525C359 30.0468 360.468 25.0873 367.327 23.9675Z" stroke="#66676B" stroke-width="1.3"/>
</svg>
