<svg width="20" height="20" viewBox="0 0 20 20" fill="none" xmlns="http://www.w3.org/2000/svg">
<mask id="path-1-outside-1_3_53" maskUnits="userSpaceOnUse" x="0" y="0" width="20" height="20" fill="black">
<rect fill="white" width="20" height="20"/>
<path d="M19 10C19 12.3869 18.0518 14.6761 16.364 16.364C14.6761 18.0518 12.3869 19 10 19C7.61305 19 5.32387 18.0518 3.63604 16.364C1.94821 14.6761 1 12.3869 1 10C1 7.61305 1.94821 5.32387 3.63604 3.63604C5.32387 1.94821 7.61305 1 10 1C12.3869 1 14.6761 1.94821 16.364 3.63604C18.0518 5.32387 19 7.61305 19 10Z"/>
</mask>
<path d="M19 10C19 12.3869 18.0518 14.6761 16.364 16.364C14.6761 18.0518 12.3869 19 10 19C7.61305 19 5.32387 18.0518 3.63604 16.364C1.94821 14.6761 1 12.3869 1 10C1 7.61305 1.94821 5.32387 3.63604 3.63604C5.32387 1.94821 7.61305 1 10 1C12.3869 1 14.6761 1.94821 16.364 3.63604C18.0518 5.32387 19 7.61305 19 10Z" fill="url(#paint0_linear_3_53)"/>
<path d="M10 19V20V19ZM1 10H0H1ZM10 1V0V1ZM18 10C18 12.1217 17.1571 14.1566 15.6569 15.6569L17.0711 17.0711C18.9464 15.1957 20 12.6522 20 10H18ZM15.6569 15.6569C14.1566 17.1571 12.1217 18 10 18V20C12.6522 20 15.1957 18.9464 17.0711 17.0711L15.6569 15.6569ZM10 18C7.87827 18 5.84344 17.1571 4.34315 15.6569L2.92893 17.0711C4.8043 18.9464 7.34784 20 10 20V18ZM4.34315 15.6569C2.84285 14.1566 2 12.1217 2 10H0C0 12.6522 1.05357 15.1957 2.92893 17.0711L4.34315 15.6569ZM2 10C2 7.87827 2.84285 5.84344 4.34315 4.34315L2.92893 2.92893C1.05357 4.8043 0 7.34784 0 10H2ZM4.34315 4.34315C5.84344 2.84285 7.87827 2 10 2V0C7.34784 0 4.8043 1.05357 2.92893 2.92893L4.34315 4.34315ZM10 2C12.1217 2 14.1566 2.84285 15.6569 4.34315L17.0711 2.92893C15.1957 1.05357 12.6522 0 10 0V2ZM15.6569 4.34315C17.1571 5.84344 18 7.87827 18 10H20C20 7.34784 18.9464 4.8043 17.0711 2.92893L15.6569 4.34315Z" fill="white" mask="url(#path-1-outside-1_3_53)"/>
<g filter="url(#filter0_d_3_53)">
<path d="M6.85001 16.2449C6.85001 16.8389 8.25964 16.7444 10 16.7444C11.7393 16.7444 13.15 16.8389 13.15 16.2449C13.15 15.5294 11.7393 15.0625 10 15.0625C8.25964 15.0625 6.85001 15.5294 6.85001 16.2449Z" fill="black"/>
</g>
<path d="M6.85001 16.2449C6.85001 16.8389 8.25964 16.7444 10 16.7444C11.7393 16.7444 13.15 16.8389 13.15 16.2449C13.15 15.5294 11.7393 15.0625 10 15.0625C8.25964 15.0625 6.85001 15.5294 6.85001 16.2449Z" fill="url(#paint1_linear_3_53)"/>
<path d="M5.04999 12.0599C5.04999 11.1701 5.65524 10.4501 6.39999 10.4501C7.14586 10.4501 7.74999 11.1701 7.74999 12.0599C7.74999 12.4301 7.64536 12.7721 7.46649 13.0432C7.38291 13.168 7.25504 13.2565 7.10874 13.2907C6.93999 13.3312 6.68911 13.3751 6.39999 13.3751C6.11086 13.3751 5.85886 13.3312 5.69124 13.2907C5.5448 13.2568 5.41682 13.1683 5.33349 13.0432C5.14514 12.7501 5.04659 12.4083 5.04999 12.0599ZM12.25 12.0599C12.25 11.1701 12.8541 10.4501 13.6 10.4501C14.3447 10.4501 14.95 11.1701 14.95 12.0599C14.95 12.4301 14.8442 12.7721 14.6665 13.0432C14.5832 13.1683 14.4552 13.2568 14.3087 13.2907C14.0766 13.3462 13.8387 13.3745 13.6 13.3751C13.3109 13.3751 13.06 13.3312 12.8912 13.2907C12.7447 13.2565 12.6165 13.168 12.5324 13.0432C12.3449 12.7498 12.2468 12.4081 12.25 12.0599Z" fill="url(#paint2_linear_3_53)"/>
<g filter="url(#filter1_i_3_53)">
<path d="M5.04999 12.0599C5.04999 11.1701 5.65524 10.4501 6.39999 10.4501C7.14586 10.4501 7.74999 11.1701 7.74999 12.0599C7.74999 12.4301 7.64536 12.7721 7.46649 13.0432C7.38291 13.168 7.25504 13.2565 7.10874 13.2907C6.93999 13.3312 6.68911 13.3751 6.39999 13.3751C6.11086 13.3751 5.85886 13.3312 5.69124 13.2907C5.5448 13.2568 5.41682 13.1683 5.33349 13.0432C5.14514 12.7501 5.04659 12.4083 5.04999 12.0599ZM12.25 12.0599C12.25 11.1701 12.8541 10.4501 13.6 10.4501C14.3447 10.4501 14.95 11.1701 14.95 12.0599C14.95 12.4301 14.8442 12.7721 14.6665 13.0432C14.5832 13.1683 14.4552 13.2568 14.3087 13.2907C14.0766 13.3462 13.8387 13.3745 13.6 13.3751C13.3109 13.3751 13.06 13.3312 12.8912 13.2907C12.7447 13.2565 12.6165 13.168 12.5324 13.0432C12.3449 12.7498 12.2468 12.4081 12.25 12.0599Z" fill="black"/>
</g>
<path d="M6.58899 11.4996C6.5945 11.5258 6.59714 11.5526 6.59686 11.5794C6.59686 11.8056 6.39886 11.9912 6.15361 11.9912C5.90949 11.9912 5.71149 11.8056 5.71149 11.5794C5.71149 11.4861 5.74524 11.3994 5.80149 11.3308C6.05349 11.3904 6.31786 11.4478 6.58899 11.4996ZM13.2557 11.9912C13.0184 11.9912 12.8249 11.8191 12.8136 11.5997C13.105 11.5569 13.3941 11.5041 13.6754 11.4467C13.691 11.4896 13.6986 11.5349 13.6979 11.5806C13.6979 11.8056 13.501 11.9912 13.2557 11.9912Z" fill="#4F4F67"/>
<g filter="url(#filter2_d_3_53)">
<path d="M11.125 9.55C11.125 9.04825 11.3084 8.875 11.6256 8.875C11.9406 8.875 12.0914 9.1855 12.1949 10.0742C13.4639 10.0742 15.6126 9.4735 15.8196 9.4735C16.0199 9.4735 16.1313 9.56912 16.1763 9.77387C16.2156 9.95162 16.1504 10.1204 15.9276 10.2239C15.229 10.5468 13.1793 11.2757 11.4456 11.2757C11.2566 11.2757 11.125 11.179 11.125 10.9371V9.55ZM7.80514 10.0742C7.90864 9.1855 8.05939 8.875 8.37439 8.875C8.69164 8.875 8.87502 9.04825 8.87502 9.55V10.9371C8.87502 11.179 8.74339 11.2757 8.55439 11.2757C6.82077 11.2757 4.77102 10.5468 4.07239 10.2239C3.84964 10.1204 3.78439 9.95162 3.82377 9.77387C3.86989 9.56912 3.98127 9.4735 4.18039 9.4735C4.38739 9.4735 6.53614 10.0742 7.80514 10.0742Z" fill="black"/>
</g>
<path d="M11.125 9.55C11.125 9.04825 11.3084 8.875 11.6256 8.875C11.9406 8.875 12.0914 9.1855 12.1949 10.0742C13.4639 10.0742 15.6126 9.4735 15.8196 9.4735C16.0199 9.4735 16.1313 9.56912 16.1763 9.77387C16.2156 9.95162 16.1504 10.1204 15.9276 10.2239C15.229 10.5468 13.1793 11.2757 11.4456 11.2757C11.2566 11.2757 11.125 11.179 11.125 10.9371V9.55ZM7.80514 10.0742C7.90864 9.1855 8.05939 8.875 8.37439 8.875C8.69164 8.875 8.87502 9.04825 8.87502 9.55V10.9371C8.87502 11.179 8.74339 11.2757 8.55439 11.2757C6.82077 11.2757 4.77102 10.5468 4.07239 10.2239C3.84964 10.1204 3.78439 9.95162 3.82377 9.77387C3.86989 9.56912 3.98127 9.4735 4.18039 9.4735C4.38739 9.4735 6.53614 10.0742 7.80514 10.0742Z" fill="url(#paint3_linear_3_53)"/>
<defs>
<filter id="filter0_d_3_53" x="5.85001" y="15.0625" width="8.3" height="3.68738" filterUnits="userSpaceOnUse" color-interpolation-filters="sRGB">
<feFlood flood-opacity="0" result="BackgroundImageFix"/>
<feColorMatrix in="SourceAlpha" type="matrix" values="0 0 0 0 0 0 0 0 0 0 0 0 0 0 0 0 0 0 127 0" result="hardAlpha"/>
<feOffset dy="1"/>
<feGaussianBlur stdDeviation="0.5"/>
<feColorMatrix type="matrix" values="0 0 0 0 1 0 0 0 0 0.509681 0 0 0 0 0 0 0 0 0.371207 0"/>
<feBlend mode="normal" in2="BackgroundImageFix" result="effect1_dropShadow_3_53"/>
<feBlend mode="normal" in="SourceGraphic" in2="effect1_dropShadow_3_53" result="shape"/>
</filter>
<filter id="filter1_i_3_53" x="5.0499" y="10.4501" width="9.90009" height="2.92505" filterUnits="userSpaceOnUse" color-interpolation-filters="sRGB">
<feFlood flood-opacity="0" result="BackgroundImageFix"/>
<feBlend mode="normal" in="SourceGraphic" in2="BackgroundImageFix" result="shape"/>
<feColorMatrix in="SourceAlpha" type="matrix" values="0 0 0 0 0 0 0 0 0 0 0 0 0 0 0 0 0 0 127 0" result="hardAlpha"/>
<feOffset/>
<feGaussianBlur stdDeviation="0.5"/>
<feComposite in2="hardAlpha" operator="arithmetic" k2="-1" k3="1"/>
<feColorMatrix type="matrix" values="0 0 0 0 0.0387428 0 0 0 0 0.0406183 0 0 0 0 0.0875053 0 0 0 1 0"/>
<feBlend mode="normal" in2="shape" result="effect1_innerShadow_3_53"/>
</filter>
<filter id="filter2_d_3_53" x="3.71298" y="8.875" width="12.5741" height="3.10076" filterUnits="userSpaceOnUse" color-interpolation-filters="sRGB">
<feFlood flood-opacity="0" result="BackgroundImageFix"/>
<feColorMatrix in="SourceAlpha" type="matrix" values="0 0 0 0 0 0 0 0 0 0 0 0 0 0 0 0 0 0 127 0" result="hardAlpha"/>
<feOffset dy="0.6"/>
<feGaussianBlur stdDeviation="0.05"/>
<feColorMatrix type="matrix" values="0 0 0 0 0.565875 0 0 0 0 0.151272 0 0 0 0 0 0 0 0 0.15024 0"/>
<feBlend mode="normal" in2="BackgroundImageFix" result="effect1_dropShadow_3_53"/>
<feBlend mode="normal" in="SourceGraphic" in2="effect1_dropShadow_3_53" result="shape"/>
</filter>
<linearGradient id="paint0_linear_3_53" x1="10" y1="1" x2="10" y2="13.0949" gradientUnits="userSpaceOnUse">
<stop stop-color="#E04300"/>
<stop offset="1" stop-color="#FFA320"/>
</linearGradient>
<linearGradient id="paint1_linear_3_53" x1="10" y1="15.2905" x2="10" y2="16.7499" gradientUnits="userSpaceOnUse">
<stop stop-color="#3D0D00"/>
<stop offset="1" stop-color="#661C04"/>
</linearGradient>
<linearGradient id="paint2_linear_3_53" x1="9.99995" y1="10.4501" x2="9.99995" y2="13.3751" gradientUnits="userSpaceOnUse">
<stop stop-color="#191A33"/>
<stop offset="0.87162" stop-color="#3B426A"/>
</linearGradient>
<linearGradient id="paint3_linear_3_53" x1="14.0675" y1="11.4999" x2="14.0675" y2="8.875" gradientUnits="userSpaceOnUse">
<stop stop-color="#9A2F00"/>
<stop offset="1" stop-color="#D44800"/>
</linearGradient>
</defs>
</svg>
